<svg xmlns="http://www.w3.org/2000/svg" viewBox="0 0 1076.66 1076.66"><defs><style>.cls-1{fill:#dcd9ff;}.cls-2{fill:#57007e;}.cls-3{fill:#ff6000;}.cls-4{fill:#ffa559;}.cls-5{fill:#c400c6;}.cls-6{fill:none;stroke:#d35500;stroke-miterlimit:10;}</style></defs><g id="Capa_2" data-name="Capa 2"><g id="Capa_1-2" data-name="Capa 1"><rect class="cls-1" width="1076.66" height="1076.66" rx="538.33"/><path class="cls-2" d="M857.83,242.29a190.28,190.28,0,0,0-150.6,145.9,48.62,48.62,0,0,0-2.61,14.65c0,.91,0,1.84,0,2.78.42,15.85.74,31.66-.32,47.26,1,23.14-70.1,146.82-119.61,195.21V292.63a50,50,0,0,1,49.78-50C688.3,242.39,777.24,242.27,857.83,242.29Z"/><path class="cls-3" d="M498.11,333.43A14.89,14.89,0,1,1,488,351.89a14.89,14.89,0,0,1,10.12-18.46Zm145.68,53.14c-1.62-3.4-3.3-6.8-5-10.14l-.07-.1a39.88,39.88,0,0,0-19.79-18.27c-.44-.22-.86-.42-1.24-.64a168.62,168.62,0,0,1-51.22-43.22,167.21,167.21,0,0,0-22.89-16.45q-6.21-2.76-12.22-6.05c-1.94-1.06-3.88-2.17-5.76-3.33A167.81,167.81,0,0,1,476,243.62c-.42-.56-17.38-30.33-23.95-28.41-3.83,1.11-12.25,7.93-17.58,13a329.64,329.64,0,0,0-63.31,3.74A313.85,313.85,0,0,0,184,334.07a.49.49,0,0,0-.11.14c-71.4,80.65-102.51,199-64.4,325.5,46.27,140,198.85,215.3,340.29,199.84A190.16,190.16,0,0,1,298.52,693.24a63.44,63.44,0,0,1-3.12-18.51c0-1.14,0-2.31,0-3.47a192,192,0,0,1,192-192,195,195,0,0,1,25.14,1.65,169.09,169.09,0,0,0,85-30.77,4.57,4.57,0,0,0,.49-.38,30.53,30.53,0,0,0,7.51-8.19,64,64,0,0,1,7.49-9.73l0,0a63.85,63.85,0,0,1,9.74-8.49c.48-.37,1-.69,1.49-1s1.23-.84,1.89-1.22c1.65-1,3.34-2,5.09-2.83v0a171.14,171.14,0,0,0,11.64-16.47A15.9,15.9,0,0,0,643.79,386.57Z"/><path class="cls-4" d="M873.38,624.19H820.26a72.49,72.49,0,0,0-57.41,28.19c-41.1,53.19-78.29,102.57-128.76,140l0,0a322.54,322.54,0,0,1-100.78,50.27,316.28,316.28,0,0,1-73.51,16.91A190.16,190.16,0,0,1,298.52,693.24a62.51,62.51,0,0,0,35.2,38.28A257,257,0,0,0,385.12,747C500.49,765,597.27,687.7,661.61,595.36c9.2-13.21,17.73-26.71,25.57-40.29a72.56,72.56,0,0,1,62.28-36.38c41.09-.33,82.2-.62,123.29-.64a52.52,52.52,0,0,1,44.5,24.66l.66,1.06C939.82,578.75,914.67,624.19,873.38,624.19Z"/><path class="cls-5" d="M960.33,333.54c-.32.37-.64.74-.94,1.11a55.41,55.41,0,0,1-42.27,19.6H754.59a50,50,0,0,0-47.36,33.94,190.28,190.28,0,0,1,150.6-145.9c20.92,0,41.28,0,60.31.05C965.28,242.41,990.81,297.6,960.33,333.54Z"/><path class="cls-6" d="M603.84,420h0"/><path class="cls-2" d="M666.33,847.21H588.26c41.74-20.55,77.88-45.51,110.65-78.43v45.85A32.58,32.58,0,0,1,666.33,847.21Z"/></g></g></svg>